{"title":"The Magnificent Seven 2016 NEW HD-TS x264-CPG","uid":15897362,"size":2326824200,"categoryP":"video","categoryS":"movies","magnet":"?xt=urn:btih:a816e263e35e850b23683eed65ecbde4423288c2&amp;dn=The+Magnificent+Seven+2016+NEW+HD-TS+x264-CPG&amp;tr=udp%3A%2F%2Ftracker.leechers-paradise.org%3A6969&amp;tr=udp%3A%2F%2Fzer0day.ch%3A1337&amp;tr=udp%3A%2F%2Fopen.demonii.com%3A1337&amp;tr=udp%3A%2F%2Ftracker.coppersurfer.tk%3A6969&amp;tr=udp%3A%2F%2Fexodus.desync.com%3A6969","seeders":0,"leechers":50,"uploader":"loverulz","files":2,"time":1474973712,"description":"The Magnificent Seven 2016 NEW HD-TS x264-CPG\r\n\r\nVideo: AVC 2000kbps 720x320 30fps\r\nAudio: MP3 2.0 Digital Audio\r\nLanguage: English\r\nSubtitles: English for foreign parts only\r\nSample: included\r\nSource: imtoogudthx\r\nEncoder: CPG\r\n\r\nFull NFO:\r\nComplete name : The Magnificent Seven 2016 NEW HD-TS x264-CPG.mkv\r\nFormat : Matroska\r\nFormat version : Version 4 / Version 2\r\nFile size : 2.15 GiB\r\nDuration : 2 h 8 min\r\nOverall bit rate mode : Variable\r\nOverall bit rate : 2 397 kb/s\r\nWriting application : mkvmerge v9.4.0 ('Knurl') 32bit\r\nWriting library : libebml v1.3.4 + libmatroska v1.4.5\r\n\r\nVideo\r\nID : 1\r\nFormat : AVC\r\nFormat/Info : Advanced Video Codec\r\nFormat profile :   \r\nFormat settings, CABAC : Yes\r\nFormat settings, ReFrames : 3 frames\r\nCodec ID : V_MPEG4/ISO/AVC\r\nDuration : 2 h 8 min\r\nBit rate mode : Variable\r\nBit rate : 2 200 kb/s\r\nMaximum bit rate : 62.5 Mb/s\r\nWidth : 720 pixels\r\nHeight : 320 pixels\r\nDisplay aspect ratio : 2.25:1\r\nFrame rate mode : Constant\r\nFrame rate : 29.970 (30000/1001) FPS\r\nColor space : YUV\r\nChroma subsampling : 4:2:0\r\nBit depth : 8 bits\r\nScan type : Progressive\r\nStream size : 1.97 GiB (92%)\r\nWriting library : x264 core 148 r2638 7599210\r\n\r\nAudio\r\nID : 2\r\nFormat : MPEG Audio\r\nFormat version : Version 1\r\nFormat profile : Layer 3\r\nCodec ID : A_MPEG/L3\r\nCodec ID/Hint : MP3\r\nDuration : 2 h 8 min\r\nBit rate mode : Constant\r\nBit rate : 192 kb/s\r\nChannel(s) : 2 channels\r\nSampling rate : 44.1 kHz\r\nCompression mode : Lossy\r\nDelay relative to video : 4 ms\r\nStream size : 176 MiB (8%)","torrent":{"xt":"urn:btih:a816e263e35e850b23683eed65ecbde4423288c2","amp;dn":"The+Magnificent+Seven+2016+NEW+HD-TS+x264-CPG","amp;tr":["udp%3A%2F%2Ftracker.leechers-paradise.org%3A6969","udp%3A%2F%2Fzer0day.ch%3A1337","udp%3A%2F%2Fopen.demonii.com%3A1337","udp%3A%2F%2Ftracker.coppersurfer.tk%3A6969","udp%3A%2F%2Fexodus.desync.com%3A6969"],"infoHash":"a816e263e35e850b23683eed65ecbde4423288c2","infoHashBuffer":{"type":"Buffer","data":[168,22,226,99,227,94,133,11,35,104,62,237,101,236,189,228,66,50,136,194]},"announce":[],"urlList":[]}}